<?xml version="1.0" encoding="UTF-8" standalone="no"?>
<svg width="769px" height="648px" viewBox="0 0 769 648" version="1.1" xmlns="http://www.w3.org/2000/svg" xmlns:xlink="http://www.w3.org/1999/xlink" xmlns:sketch="http://www.bohemiancoding.com/sketch/ns">
    <!-- Generator: Sketch 3.2.2 (9983) - http://www.bohemiancoding.com/sketch -->
    <title>Group</title>
    <desc>Created with Sketch.</desc>
    <defs></defs>
    <g id="Page-1" stroke="none" stroke-width="1" fill="none" fill-rule="evenodd" sketch:type="MSPage">
        <g id="Group" sketch:type="MSLayerGroup" transform="translate(3.000000, 2.000000)">
            <path d="M10.9789877,143.30323 C10.9789876,134.685621 10.3087573,82.9699012 10.3087574,82.9699019 C10.3087574,82.9699026 304.484426,7.35899254 304.484426,7.35899254 C304.484426,7.35899254 687.100225,227.229014 687.100258,227.229018 C687.100291,227.229023 684.081702,258.530906 684.081702,258.530906 L758.255535,310.246628 C758.255535,310.246628 754.395389,383.884786 747.179097,383.884772 C739.962806,383.884758 390.576264,613.734671 390.576264,613.734671 C390.576264,613.734671 10.9789877,151.920839 10.9789877,143.30323 Z" id="Path-26" stroke="#979797" stroke-width="4" fill="#D8D8D8" sketch:type="MSShapeGroup"></path>
            <path d="M9.67040746,78.4920447 L301.024862,422.753958 L689.608253,226.340311 L307.063363,0.52295733 L9.67040746,78.4920447 Z" id="Path-2" stroke="#979797" stroke-width="4" fill="#D8D8D8" sketch:type="MSShapeGroup"></path>
            <path d="M32.1187118,85.8341384 L306.781434,9.59046127 L433.861552,85.8341347 L127.306655,194.918601 L32.1187118,85.8341384 Z" id="Path-1" stroke="#686868" stroke-width="4" fill="#C1C1C1" sketch:type="MSShapeGroup"></path>
            <path d="M654.67645,398.989852 L657.551105,367.127193 L580.941126,303.92046 L574.475311,326.068314 L654.67645,398.989852 Z" id="Path-13" stroke="#979797" stroke-width="4" fill="#D8D8D8" sketch:type="MSShapeGroup"></path>
            <path d="M305.047652,422.235374 C305.047652,422.235374 689.176623,229.966077 689.176623,225.303143 C689.176623,220.64021 689.176623,266.616994 689.176623,266.616994 C662.222826,281.258134 618.819474,306.116009 591.865677,320.757149 C588.857711,322.391058 594.873643,343.345429 591.865677,344.979338 C585.965366,348.184351 305.047652,503.769724 305.047652,503.769724 L305.047652,422.235374 Z" id="Path-3" stroke="#979797" stroke-width="4" fill="#D8D8D8" sketch:type="MSShapeGroup"></path>
            <path d="M465.376554,516.721358 L389.422652,566.915957 L315.46288,485.117992 L398.685428,440.822285 L465.376554,516.721358 Z" id="Path-13" stroke="#979797" stroke-width="4" fill="#EDEDED" sketch:type="MSShapeGroup"></path>
            <path d="M657.551105,398.211976 L591.865677,436.807581 L523.15884,373.471203 L591.865677,335.912765 L657.551105,398.211976 Z" id="Path-9" stroke="#979797" stroke-width="4" fill="#EDEDED" sketch:type="MSShapeGroup"></path>
            <path d="M591.291609,437.455811 L531.351174,476.570001 L465.376554,407.148905 L525.316989,373.989787 L591.291609,437.455811 Z" id="Path-10" stroke="#979797" stroke-width="4" fill="#EDEDED" sketch:type="MSShapeGroup"></path>
            <path d="M531.066298,476.181063 L466.382251,517.758526 L398.538674,442.766975 L466.382251,405.722799 L531.066298,476.181063 Z" id="Path-11" stroke="#979797" stroke-width="4" fill="#EDEDED" sketch:type="MSShapeGroup"></path>
            <path d="M411.62389,474.44709 C411.62391,474.447098 365.370765,477.524493 365.370765,477.524493 C365.370765,477.524493 401.196163,525.514879 401.196161,516.806969 C401.196159,508.099059 411.62387,474.447082 411.62389,474.44709 Z" id="Path-33" stroke="#979797" fill="#D8D8D8" sketch:type="MSShapeGroup"></path>
            <path d="M430.384695,453.611934 L456.732924,484.357467 L490.662887,458.735239 L468.299051,430.383242 L430.384695,453.611934 Z" id="Path-34" stroke="#979797" fill="#D8D8D8" sketch:type="MSShapeGroup"></path>
            <path d="M533.88218,395.198271 L561.932315,423.892202 L531.036184,420.478564 L533.88218,395.198271 Z" id="Path-35" stroke="#979797" fill="#D8D8D8" sketch:type="MSShapeGroup"></path>
            <path d="M515.303519,404.419081 C515.303524,404.419082 541.082549,434.993647 541.082549,434.993647 L515.115683,432.434844 C515.115683,432.434844 515.303514,404.41908 515.303519,404.419081 Z" id="Path-36" stroke="#979797" fill="#D8D8D8" sketch:type="MSShapeGroup"></path>
            <path d="M555.870344,385.122626 L582.406409,409.890019 L583.35128,382.729091 L555.870344,385.122626 Z" id="Path-37" stroke="#979797" fill="#D8D8D8" sketch:type="MSShapeGroup"></path>
            <path d="M576.72011,374.021181 L603.068339,395.711171 L600.603707,371.798612 L576.72011,374.021181 Z" id="Path-38" stroke="#979797" fill="#D8D8D8" sketch:type="MSShapeGroup"></path>
            <g id="key4" transform="translate(524.850829, 307.468439)" stroke="#979797" sketch:type="MSShapeGroup">
                <path d="M131.120511,59.0105248 L131.983771,89.4470775 L66.5832182,128.690913 L64.714261,95.1471787 L131.120511,59.0105248 Z" id="Path-14" stroke-width="4" fill="#EDEDED"></path>
                <path d="M66.4407804,131.413479 L66.4407804,93.461781 L0.0616721685,37.7479796 L0.0616721685,65.6745324 L66.4407804,131.413479 Z" id="Path-15" stroke-width="4" fill="#EDEDED"></path>
                <path d="M0.431625356,34.2207485 L66.7256558,97.2367472 L136.199567,57.6365244 L66.7256558,0.189335028 L0.431625356,34.2207485 Z" id="Path-16" stroke-width="4" fill="#EDEDED"></path>
                <g id="forward" transform="translate(35.359116, 33.189369)" fill="#D8D8D8">
                    <path d="M0.965335384,12.8644517 L24.6610969,33.0214397 L30.5352323,13.8902526 L0.965335384,12.8644517 Z" id="Path-31"></path>
                    <path d="M20.1075035,2.44687356 L43.803265,20.8941933 L47.0249323,0.395271734 L20.1075035,2.44687356 Z" id="Path-32"></path>
                </g>
            </g>
            <g id="key3" transform="translate(458.552486, 342.870432)" stroke="#979797" sketch:type="MSShapeGroup">
                <path d="M131.120511,59.0105248 L131.120511,95.1471787 L71.3514781,134.13033 L71.3514781,95.1471787 L131.120511,59.0105248 Z" id="Path-14" stroke-width="4" fill="#EDEDED"></path>
                <path d="M71.7732008,133.262307 L71.7732008,96.9811016 L0.0616721685,37.6951637 L0.0616721685,65.6745324 L71.7732008,133.262307 Z" id="Path-15" stroke-width="4" fill="#EDEDED"></path>
                <path d="M0.863808196,35.3626881 L72.2564568,97.3616581 L133.350861,61.5908109 L66.7256558,0.189335028 L0.863808196,35.3626881 Z" id="Path-16" stroke-width="4" fill="#EDEDED"></path>
                <g id="backwards" transform="translate(54.143646, 23.232558)" fill="#D8D8D8">
                    <path d="M19.290614,0.401349453 L48.6669833,28.2404465 L17.7708522,28.9243137 L19.290614,0.401349453 Z" id="Path-29"></path>
                    <path d="M3.36442121,15.4293328 L25.9217844,41.3934937 L0.905480787,37.4669558 L3.36442121,15.4293328 Z" id="Path-30"></path>
                </g>
            </g>
            <g id="key2" transform="translate(391.149171, 377.166113)" stroke="#979797" sketch:type="MSShapeGroup">
                <path d="M138.876062,64.695105 L138.876062,99.4540995 L74.323738,140.024681 L71.3514781,102.929816 L138.876062,64.695105 Z" id="Path-14" stroke-width="4" fill="#EDEDED"></path>
                <path d="M74.9264591,140.405235 L74.9264591,101.789971 L0.0616721685,40.7757827 L0.0616721685,67.887157 L74.9264591,140.405235 Z" id="Path-15" stroke-width="4" fill="#EDEDED"></path>
                <path d="M0.431625356,36.4333731 L74.0214772,101.626875 L138.935789,63.3921641 L69.683707,0.17921092 L0.431625356,36.4333731 Z" id="Path-16" stroke-width="4" fill="#EDEDED"></path>
                <path d="M42.6507183,42.1156835 L67.6727138,24.352231 L98.9445163,52.8751953 L71.4635803,74.2232521 L42.6507183,42.1156835 Z" id="Path-28" fill="#D8D8D8"></path>
            </g>
            <g id="key1" transform="translate(321.535912, 413.674419)" stroke="#979797" sketch:type="MSShapeGroup">
                <path d="M143.295951,67.3656464 L143.295952,103.879349 L71.2580728,150.051771 L71.2580728,111.729996 L143.295951,67.3656464 Z" id="Path-14" stroke-width="4" fill="#EDEDED"></path>
                <path d="M74.6434591,148.814101 L74.6434591,109.272616 L4.48156167,41.1318705 L4.48156167,72.3124062 L74.6434591,148.814101 Z" id="Path-15" stroke-width="4" fill="#EDEDED"></path>
                <path d="M0.372559721,36.1910993 L69.5674377,111.881494 L142.979528,65.6821521 L69.5674377,0.634227081 L0.372559721,36.1910993 Z" id="Path-16" stroke-width="4" fill="#EDEDED"></path>
                <path d="M35.30825,38.2278469 L71.1336458,81.1006262 L84.9708777,30.8876715 L35.30825,38.2278469 Z" id="Path-27" fill="#D8D8D8"></path>
            </g>
            <path d="M11.9753108,78.0307212 L395.810773,523.744659 L395.810773,621.501233 L370.655387,640.282613 L370.655387,532.333468 L1.22880698,80.5156023 L11.9753108,78.0307212 Z" id="Path-12" stroke="#979797" stroke-width="4" fill="#D8D8D8" sketch:type="MSShapeGroup"></path>
            <path d="M371.661084,533.558049 L371.661084,640.371001 C371.661084,634.800546 0.13570442,145.219746 0.13570442,145.219746 L0.13570442,85.763023 L371.661084,533.558049 Z" id="Path-7" stroke="#979797" stroke-width="4" fill="#D8D8D8" sketch:type="MSShapeGroup"></path>
            <path d="M590.380045,308.50383 L657.905624,364.329279 C657.905624,364.329279 767.940435,303.531523 763.343577,303.531523 C758.74672,303.531523 689.004882,254.362435 689.004882,254.362435 L590.380045,308.50383 Z" id="Path-8" stroke="#979797" stroke-width="4" fill="#D8D8D8" sketch:type="MSShapeGroup"></path>
            <path d="M657.266229,398.268741 C552.554198,463.073633 395.567128,562.0074 395.567128,562.0074 L395.567128,523.433486 L373.464874,533.280142 L373.464874,642.040569 C373.464874,642.040569 610.989745,485.725946 705.460654,425.090019 L760.900552,392.541239 L760.900552,304.56869 L657.266229,364.609846 L657.266229,398.268741 Z" id="Path-8" stroke="#979797" stroke-width="4" fill="#D8D8D8" sketch:type="MSShapeGroup"></path>
        </g>
    </g>
</svg>