<?xml version="1.0" encoding="UTF-8" standalone="no"?>
<svg width="769px" height="648px" viewBox="0 0 769 648" version="1.1" xmlns="http://www.w3.org/2000/svg" xmlns:xlink="http://www.w3.org/1999/xlink" xmlns:sketch="http://www.bohemiancoding.com/sketch/ns">
    <!-- Generator: Sketch 3.2.2 (9983) - http://www.bohemiancoding.com/sketch -->
    <title>casette</title>
    <desc>Created with Sketch.</desc>
    <defs></defs>
    <g id="Page-1" stroke="none" stroke-width="1" fill="none" fill-rule="evenodd" sketch:type="MSPage">
        <g id="casette" sketch:type="MSLayerGroup" transform="translate(3.000000, 2.000000)">
            <g id="top-plate" transform="translate(9.000000, 0.000000)" stroke-width="4" sketch:type="MSShapeGroup">
                <path d="M1.9789877,143.30323 C1.9789876,134.685621 1.3087573,82.9699012 1.3087574,82.9699019 C1.3087574,82.9699026 295.484426,7.35899254 295.484426,7.35899254 C295.484426,7.35899254 678.100225,227.229014 678.100258,227.229018 C678.100291,227.229023 675.081702,258.530906 675.081702,258.530906 L749.255535,310.246628 C749.255535,310.246628 745.395389,383.884786 738.179097,383.884772 C730.962806,383.884758 381.576264,613.734671 381.576264,613.734671 C381.576264,613.734671 1.9789877,151.920839 1.9789877,143.30323 L1.9789877,143.30323 Z" id="Path-26" stroke="#979797" fill="#D8D8D8"></path>
                <path d="M0.67040746,78.4920447 L292.024862,422.753958 L680.608253,226.340311 L298.063363,0.52295733 L0.67040746,78.4920447 L0.67040746,78.4920447 Z" id="Path-2" stroke="#979797" fill="#D8D8D8"></path>
                <path d="M23.1187118,85.8341384 L297.781434,9.59046127 L424.861552,85.8341347 L118.306655,194.918601 L23.1187118,85.8341384 L23.1187118,85.8341384 Z" id="Path-1" stroke="#686868" fill="#C1C1C1"></path>
                <path d="M645.67645,398.989852 L648.551105,367.127193 L571.941126,303.92046 L565.475311,326.068314 L645.67645,398.989852 L645.67645,398.989852 Z" id="Path-13" stroke="#979797" fill="#D8D8D8"></path>
                <path d="M296.047652,422.235374 C296.047652,422.235374 680.176623,229.966077 680.176623,225.303143 C680.176623,220.64021 680.176623,266.616994 680.176623,266.616994 C653.222826,281.258134 609.819474,306.116009 582.865677,320.757149 C579.857711,322.391058 585.873643,343.345429 582.865677,344.979338 C576.965366,348.184351 296.047652,503.769724 296.047652,503.769724 L296.047652,422.235374 L296.047652,422.235374 Z" id="Path-3" stroke="#979797" fill="#D8D8D8"></path>
            </g>
            <g id="subkeys" transform="translate(315.000000, 335.000000)" stroke="#979797" sketch:type="MSShapeGroup">
                <path d="M150.376554,181.721358 L74.422652,231.915957 L0.46288,150.117992 L83.685428,105.822285 L150.376554,181.721358 L150.376554,181.721358 Z" id="Path-13" stroke-width="4" fill="#EDEDED"></path>
                <path d="M342.551105,63.211976 L276.865677,101.807581 L208.15884,38.471203 L276.865677,0.912765 L342.551105,63.211976 L342.551105,63.211976 Z" id="Path-9" stroke-width="4" fill="#EDEDED"></path>
                <path d="M276.291609,102.455811 L216.351174,141.570001 L150.376554,72.148905 L210.316989,38.989787 L276.291609,102.455811 L276.291609,102.455811 Z" id="Path-10" stroke-width="4" fill="#EDEDED"></path>
                <path d="M216.066298,141.181063 L151.382251,182.758526 L83.538674,107.766975 L151.382251,70.722799 L216.066298,141.181063 L216.066298,141.181063 Z" id="Path-11" stroke-width="4" fill="#EDEDED"></path>
                <path d="M96.62389,139.44709 C96.62391,139.447098 50.370765,142.524493 50.370765,142.524493 C50.370765,142.524493 86.196163,190.514879 86.196161,181.806969 C86.196159,173.099059 96.62387,139.447082 96.62389,139.44709 L96.62389,139.44709 Z" id="Path-33" fill="#D8D8D8"></path>
                <path d="M115.384695,118.611934 L141.732924,149.357467 L175.662887,123.735239 L153.299051,95.383242 L115.384695,118.611934 L115.384695,118.611934 Z" id="Path-34" fill="#D8D8D8"></path>
                <path d="M218.88218,60.198271 L246.932315,88.892202 L216.036184,85.478564 L218.88218,60.198271 L218.88218,60.198271 Z" id="Path-35" fill="#D8D8D8"></path>
                <path d="M200.303519,69.419081 C200.303524,69.419082 226.082549,99.993647 226.082549,99.993647 L200.115683,97.434844 C200.115683,97.434844 200.303514,69.41908 200.303519,69.419081 L200.303519,69.419081 Z" id="Path-36" fill="#D8D8D8"></path>
                <path d="M240.870344,50.122626 L267.406409,74.890019 L268.35128,47.729091 L240.870344,50.122626 L240.870344,50.122626 Z" id="Path-37" fill="#D8D8D8"></path>
                <path d="M261.72011,39.021181 L288.068339,60.711171 L285.603707,36.798612 L261.72011,39.021181 L261.72011,39.021181 Z" id="Path-38" fill="#D8D8D8"></path>
            </g>
            <g id="key4" ng-click="pressButton()" transform="translate(524.850829, 307.468439)" stroke="#979797" sketch:type="MSShapeGroup">
                <path d="M131.120511,59.0105248 L131.983771,89.4470775 L66.5832182,128.690913 L64.714261,95.1471787 L131.120511,59.0105248 L131.120511,59.0105248 Z" id="Path-14" stroke-width="4" fill="#EDEDED"></path>
                <path d="M66.4407804,131.413479 L66.4407804,93.461781 L0.0616721685,37.7479796 L0.0616721685,65.6745324 L66.4407804,131.413479 L66.4407804,131.413479 Z" id="Path-15" stroke-width="4" fill="#EDEDED"></path>
                <path d="M0.431625356,34.2207485 L66.7256558,97.2367472 L136.199567,57.6365244 L66.7256558,0.189335028 L0.431625356,34.2207485 L0.431625356,34.2207485 Z" id="Path-16" stroke-width="4" fill="#EDEDED"></path>
                <g id="forward" transform="translate(35.359116, 33.189369)" fill="#D8D8D8">
                    <path d="M0.965335384,12.8644517 L24.6610969,33.0214397 L30.5352323,13.8902526 L0.965335384,12.8644517 L0.965335384,12.8644517 Z" id="Path-31"></path>
                    <path d="M20.1075035,2.44687356 L43.803265,20.8941933 L47.0249323,0.395271734 L20.1075035,2.44687356 L20.1075035,2.44687356 Z" id="Path-32"></path>
                </g>
            </g>
            <g id="key3" transform="translate(458.552486, 342.870432)" stroke="#979797" sketch:type="MSShapeGroup">
                <path d="M131.120511,59.0105248 L131.120511,95.1471787 L71.3514781,134.13033 L71.3514781,95.1471787 L131.120511,59.0105248 L131.120511,59.0105248 Z" id="Path-14" stroke-width="4" fill="#EDEDED"></path>
                <path d="M71.7732008,133.262307 L71.7732008,96.9811016 L0.0616721685,37.6951637 L0.0616721685,65.6745324 L71.7732008,133.262307 L71.7732008,133.262307 Z" id="Path-15" stroke-width="4" fill="#EDEDED"></path>
                <path d="M0.863808196,35.3626881 L72.2564568,97.3616581 L133.350861,61.5908109 L66.7256558,0.189335028 L0.863808196,35.3626881 L0.863808196,35.3626881 Z" id="Path-16" stroke-width="4" fill="#EDEDED"></path>
                <g id="backwards" transform="translate(54.143646, 23.232558)" fill="#D8D8D8">
                    <path d="M19.290614,0.401349453 L48.6669833,28.2404465 L17.7708522,28.9243137 L19.290614,0.401349453 L19.290614,0.401349453 Z" id="Path-29"></path>
                    <path d="M3.36442121,15.4293328 L25.9217844,41.3934937 L0.905480787,37.4669558 L3.36442121,15.4293328 L3.36442121,15.4293328 Z" id="Path-30"></path>
                </g>
            </g>
            <g id="key2" transform="translate(391.149171, 377.166113)" stroke="#979797" sketch:type="MSShapeGroup">
                <path d="M138.876062,64.695105 L138.876062,99.4540995 L74.323738,140.024681 L71.3514781,102.929816 L138.876062,64.695105 L138.876062,64.695105 Z" id="Path-14" stroke-width="4" fill="#EDEDED"></path>
                <path d="M74.9264591,140.405235 L74.9264591,101.789971 L0.0616721685,40.7757827 L0.0616721685,67.887157 L74.9264591,140.405235 L74.9264591,140.405235 Z" id="Path-15" stroke-width="4" fill="#EDEDED"></path>
                <path d="M0.431625356,36.4333731 L74.0214772,101.626875 L138.935789,63.3921641 L69.683707,0.17921092 L0.431625356,36.4333731 L0.431625356,36.4333731 Z" id="Path-16" stroke-width="4" fill="#EDEDED"></path>
                <path d="M42.6507183,42.1156835 L67.6727138,24.352231 L98.9445163,52.8751953 L71.4635803,74.2232521 L42.6507183,42.1156835 L42.6507183,42.1156835 Z" id="Path-28" fill="#D8D8D8"></path>
            </g>
            <g id="key1" transform="translate(321.535912, 413.674419)" stroke="#979797" sketch:type="MSShapeGroup">
                <path d="M143.295951,67.3656464 L143.295952,103.879349 L71.2580728,150.051771 L71.2580728,111.729996 L143.295951,67.3656464 L143.295951,67.3656464 Z" id="Path-14" stroke-width="4" fill="#EDEDED"></path>
                <path d="M74.6434591,148.814101 L74.6434591,109.272616 L4.48156167,41.1318705 L4.48156167,72.3124062 L74.6434591,148.814101 L74.6434591,148.814101 Z" id="Path-15" stroke-width="4" fill="#EDEDED"></path>
                <path d="M0.372559721,36.1910993 L69.5674377,111.881494 L142.979528,65.6821521 L69.5674377,0.634227081 L0.372559721,36.1910993 L0.372559721,36.1910993 Z" id="Path-16" stroke-width="4" fill="#EDEDED"></path>
                <path d="M35.30825,38.2278469 L71.1336458,81.1006262 L84.9708777,30.8876715 L35.30825,38.2278469 L35.30825,38.2278469 Z" id="Path-27" fill="#D8D8D8"></path>
            </g>
            <g id="front-plate" transform="translate(0.000000, 78.000000)" stroke="#979797" stroke-width="4" fill="#D8D8D8" sketch:type="MSShapeGroup">
                <path d="M11.9753108,0.0307212 L395.810773,445.744659 L395.810773,543.501233 L370.655387,562.282613 L370.655387,454.333468 L1.22880698,2.5156023 L11.9753108,0.0307212 L11.9753108,0.0307212 Z" id="Path-12"></path>
                <path d="M371.661084,455.558049 L371.661084,562.371001 C371.661084,556.800546 0.13570442,67.219746 0.13570442,67.219746 L0.13570442,7.763023 L371.661084,455.558049 L371.661084,455.558049 Z" id="Path-7"></path>
                <path d="M590.380045,230.50383 L657.905624,286.329279 C657.905624,286.329279 767.940435,225.531523 763.343577,225.531523 C758.74672,225.531523 689.004882,176.362435 689.004882,176.362435 L590.380045,230.50383 L590.380045,230.50383 Z" id="Path-8"></path>
                <path d="M657.266229,320.268741 C552.554198,385.073633 395.567128,484.0074 395.567128,484.0074 L395.567128,445.433486 L373.464874,455.280142 L373.464874,564.040569 C373.464874,564.040569 610.989745,407.725946 705.460654,347.090019 L760.900552,314.541239 L760.900552,226.56869 L657.266229,286.609846 L657.266229,320.268741 L657.266229,320.268741 Z" id="Path-8"></path>
            </g>
        </g>
    </g>
</svg>