<?xml version="1.0" encoding="UTF-8" standalone="no"?>
<svg width="610px" height="393px" viewBox="0 0 610 393" version="1.1" xmlns="http://www.w3.org/2000/svg" xmlns:xlink="http://www.w3.org/1999/xlink" xmlns:sketch="http://www.bohemiancoding.com/sketch/ns">
    <!-- Generator: Sketch 3.2.2 (9983) - http://www.bohemiancoding.com/sketch -->
    <title>Group</title>
    <desc>Created with Sketch.</desc>
    <defs></defs>
    <g id="Page-1" stroke="none" stroke-width="1" fill="none" fill-rule="evenodd" sketch:type="MSPage">
        <g id="Group" sketch:type="MSLayerGroup" transform="translate(3.000000, 3.000000)">
            <g id="otherstuff" sketch:type="MSShapeGroup">
                <path d="M12.8595236,7.49685878 L24.0620037,0.354730014 L579.640021,0.63953883 L591.897754,7.17188462 L593.559139,235.055451 L603.163693,243.052011 L603.163693,335.246087 L594.000958,340.32152 L595.833958,363.003986 L589.170162,372.015629 L580.523659,377.131233 L506.951699,378.146321 L500.616529,383.871709 L105.024387,383.871709 L96.0492575,377.536538 L22.8826031,376.926755 L12.3264199,372.420934 L10.0917661,363.124482 L8.18573788,341.413287 L3.4316215,335.246081 L0.992489589,243.052006 L9.35418431,234.328824 L10.3291068,17.2752948 L12.8595236,7.49685878 Z" id="Path-39" stroke="#979797" stroke-width="6" fill="#E8E8E8"></path>
                <path d="M12.410402,13.1966865 L22.7219417,7.39096832 L577.208192,8.11759594 L591.777258,16.4427767 L594.088591,364.365956 L588.567682,371.665095 L583.817217,377.065508 L508.828516,379.051867 L499.820525,386.36196 L103.899757,385.065715 L97.0826023,377.430648 L24.083912,377.755622 L16.0837054,374.224723 L12.2679976,369.145632 L12.3081629,342.607293 L12.410402,13.1966865 Z" id="Path-40" stroke="#979797" stroke-width="6" stroke-linecap="round" stroke-linejoin="round" fill="#AAA9A9"></path>
                <path d="M27.8777115,100.80826 L577.419973,101.819696 L579.329652,262.882733 L28.3450901,263.167542 L27.8777115,100.80826 Z" id="Path-43" stroke="#979797" stroke-width="4" fill="#E8E8E8"></path>
                <circle id="Oval-1" stroke="#979797" fill="#515050" cx="179.5" cy="181.5" r="107.5"></circle>
                <circle id="Oval-6" stroke="#3A3A3A" fill="#515050" cx="427" cy="184" r="60"></circle>
                <rect id="Rectangle-2" fill="#AAA9A9" x="18" y="16" width="568" height="85"></rect>
            </g>
            <g id="stuff" transform="translate(28.000000, 20.000000)" sketch:type="MSShapeGroup">
                <path d="M70.4264887,357.759553 L95.1369341,284.852336 L444.915563,284.852336 L481.455639,355.780839 L474.000248,363.759416 L80.6118338,364.617976 L70.4264887,357.759553 Z" id="Path-46" stroke="#979797" stroke-width="6" fill="#E8E8E8"></path>
                <path d="M33.2733709,12.6878334 L47.8022719,12.6878334 L40.7003084,0.221970609 L33.2733709,12.6878334 Z" id="Path-41" stroke="#979797" stroke-width="3" fill="#D8D8D8"></path>
                <rect id="Rectangle-3" fill="#AAA9A9" x="0" y="244" width="551" height="41"></rect>
                <path d="M18.2624857,32.6061935 L536.395447,33.738126 L536.395447,65.5125659 L18.0945215,65.6805301 L18.2624857,32.6061935 Z" id="Path-42" stroke="#979797" stroke-width="4" fill="#E9E8E8"></path>
            </g>
            <g id="leftwheel" transform="translate(124.000000, 129.000000)" stroke="#979797" stroke-width="3" sketch:type="MSShapeGroup">
                <circle id="Oval-3" fill="#D8D8D8" cx="55.5" cy="55.5" r="55.5"></circle>
                <ellipse id="Oval-2" fill="#D8D8D8" cx="55" cy="55" rx="45" ry="44"></ellipse>
                <path d="M32.77832,83.7978517 C38.3502643,86.9635242 43.8896491,88.6630822 43.8896491,88.6630822 L49.4033198,70.381836 L58.9451575,71.8010251 L53.9171874,90.2812463 C53.9171874,90.2812463 63.3985212,90.8390206 70.8681647,87.1455041 C78.3378083,83.4519876 80.633027,77.27269 81.4304472,76.6767579 C82.9927907,75.5091794 69.3698904,68.6352656 69.3698904,68.6352656 L72.5625014,58.3916017 C72.5625014,58.3916017 86.6195674,65.2782011 89.1875005,64.2061235 C91.7554337,63.1340458 92.5205084,57.1127317 92.5205084,51.7273618 C92.5205084,46.3419919 89.1875005,41.006836 89.1875005,41.006836 L77.6549059,45.5876599 L73.8355466,36.5760168 L81.4304484,31.7853865 C81.4304484,31.7853865 75.8875805,26.9090351 72.5625014,25.600586 C69.2870754,24.311676 61.6289335,20.7472192 61.6289335,20.7472192 L61.6289329,30.1203504 L54.8519436,30.1203504 L53.9171865,20.7472192 C53.9171865,20.7472192 44.7207512,20.7456628 40.2463626,23.2119142 C35.771974,25.6781656 31.7646483,30.12035 31.7646483,30.12035 L40.2463633,38.1972363 L34.4406452,43.3530061 L25.3789061,36.5760165 C25.3789061,36.5760165 21.6232331,40.4345618 20.1601562,48.1806642 C18.6970793,55.9267666 20.1601562,64.2061235 20.1601562,64.2061235 L32.77832,58.3916017 L38.3366837,64.2061234 L25.3789061,75.013672 C25.3789061,75.013672 27.2063757,80.6321791 32.77832,83.7978517 Z" id="Path-49" fill="#A7A2A2"></path>
            </g>
            <g id="rightwheel" transform="translate(372.000000, 129.000000)" stroke="#979797" stroke-width="3" sketch:type="MSShapeGroup">
                <circle id="Oval-3" fill="#D8D8D8" cx="55.5" cy="55.5" r="55.5"></circle>
                <ellipse id="Oval-2" fill="#D8D8D8" cx="55" cy="55" rx="45" ry="44"></ellipse>
                <path d="M32.77832,83.7978517 C38.3502643,86.9635242 43.8896491,88.6630822 43.8896491,88.6630822 L49.4033198,70.381836 L58.9451575,71.8010251 L53.9171874,90.2812463 C53.9171874,90.2812463 63.3985212,90.8390206 70.8681647,87.1455041 C78.3378083,83.4519876 80.633027,77.27269 81.4304472,76.6767579 C82.9927907,75.5091794 69.3698904,68.6352656 69.3698904,68.6352656 L72.5625014,58.3916017 C72.5625014,58.3916017 86.6195674,65.2782011 89.1875005,64.2061235 C91.7554337,63.1340458 92.5205084,57.1127317 92.5205084,51.7273618 C92.5205084,46.3419919 89.1875005,41.006836 89.1875005,41.006836 L77.6549059,45.5876599 L73.8355466,36.5760168 L81.4304484,31.7853865 C81.4304484,31.7853865 75.8875805,26.9090351 72.5625014,25.600586 C69.2870754,24.311676 61.6289335,20.7472192 61.6289335,20.7472192 L61.6289329,30.1203504 L54.8519436,30.1203504 L53.9171865,20.7472192 C53.9171865,20.7472192 44.7207512,20.7456628 40.2463626,23.2119142 C35.771974,25.6781656 31.7646483,30.12035 31.7646483,30.12035 L40.2463633,38.1972363 L34.4406452,43.3530061 L25.3789061,36.5760165 C25.3789061,36.5760165 21.6232331,40.4345618 20.1601562,48.1806642 C18.6970793,55.9267666 20.1601562,64.2061235 20.1601562,64.2061235 L32.77832,58.3916017 L38.3366837,64.2061234 L25.3789061,75.013672 C25.3789061,75.013672 27.2063757,80.6321791 32.77832,83.7978517 Z" id="Path-44" fill="#A7A2A2"></path>
            </g>
            <g id="left_wheel_top" transform="translate(124.000000, 129.000000)" stroke="#979797" stroke-width="3" sketch:type="MSShapeGroup">
                <circle id="Oval-3" fill="#D8D8D8" cx="55.5" cy="55.5" r="55.5"></circle>
                <ellipse id="Oval-2" fill="#D8D8D8" cx="55" cy="55" rx="45" ry="44"></ellipse>
                <path d="M32.77832,83.7978517 C38.3502643,86.9635242 43.8896491,88.6630822 43.8896491,88.6630822 L49.4033198,70.381836 L58.9451575,71.8010251 L53.9171874,90.2812463 C53.9171874,90.2812463 63.3985212,90.8390206 70.8681647,87.1455041 C78.3378083,83.4519876 80.633027,77.27269 81.4304472,76.6767579 C82.9927907,75.5091794 69.3698904,68.6352656 69.3698904,68.6352656 L72.5625014,58.3916017 C72.5625014,58.3916017 86.6195674,65.2782011 89.1875005,64.2061235 C91.7554337,63.1340458 92.5205084,57.1127317 92.5205084,51.7273618 C92.5205084,46.3419919 89.1875005,41.006836 89.1875005,41.006836 L77.6549059,45.5876599 L73.8355466,36.5760168 L81.4304484,31.7853865 C81.4304484,31.7853865 75.8875805,26.9090351 72.5625014,25.600586 C69.2870754,24.311676 61.6289335,20.7472192 61.6289335,20.7472192 L61.6289329,30.1203504 L54.8519436,30.1203504 L53.9171865,20.7472192 C53.9171865,20.7472192 44.7207512,20.7456628 40.2463626,23.2119142 C35.771974,25.6781656 31.7646483,30.12035 31.7646483,30.12035 L40.2463633,38.1972363 L34.4406452,43.3530061 L25.3789061,36.5760165 C25.3789061,36.5760165 21.6232331,40.4345618 20.1601562,48.1806642 C18.6970793,55.9267666 20.1601562,64.2061235 20.1601562,64.2061235 L32.77832,58.3916017 L38.3366837,64.2061234 L25.3789061,75.013672 C25.3789061,75.013672 27.2063757,80.6321791 32.77832,83.7978517 Z" id="Path-44" fill="#A7A2A2"></path>
            </g>
            <g id="right_wheel_top" transform="translate(372.000000, 129.000000)" stroke="#979797" stroke-width="3" sketch:type="MSShapeGroup">
                <circle id="Oval-3" fill="#D8D8D8" cx="55.5" cy="55.5" r="55.5"></circle>
                <ellipse id="Oval-2" fill="#D8D8D8" cx="55" cy="55" rx="45" ry="44"></ellipse>
                <path d="M32.77832,83.7978517 C38.3502643,86.9635242 43.8896491,88.6630822 43.8896491,88.6630822 L49.4033198,70.381836 L58.9451575,71.8010251 L53.9171874,90.2812463 C53.9171874,90.2812463 63.3985212,90.8390206 70.8681647,87.1455041 C78.3378083,83.4519876 80.633027,77.27269 81.4304472,76.6767579 C82.9927907,75.5091794 69.3698904,68.6352656 69.3698904,68.6352656 L72.5625014,58.3916017 C72.5625014,58.3916017 86.6195674,65.2782011 89.1875005,64.2061235 C91.7554337,63.1340458 92.5205084,57.1127317 92.5205084,51.7273618 C92.5205084,46.3419919 89.1875005,41.006836 89.1875005,41.006836 L77.6549059,45.5876599 L73.8355466,36.5760168 L81.4304484,31.7853865 C81.4304484,31.7853865 75.8875805,26.9090351 72.5625014,25.600586 C69.2870754,24.311676 61.6289335,20.7472192 61.6289335,20.7472192 L61.6289329,30.1203504 L54.8519436,30.1203504 L53.9171865,20.7472192 C53.9171865,20.7472192 44.7207512,20.7456628 40.2463626,23.2119142 C35.771974,25.6781656 31.7646483,30.12035 31.7646483,30.12035 L40.2463633,38.1972363 L34.4406452,43.3530061 L25.3789061,36.5760165 C25.3789061,36.5760165 21.6232331,40.4345618 20.1601562,48.1806642 C18.6970793,55.9267666 20.1601562,64.2061235 20.1601562,64.2061235 L32.77832,58.3916017 L38.3366837,64.2061234 L25.3789061,75.013672 C25.3789061,75.013672 27.2063757,80.6321791 32.77832,83.7978517 Z" id="Path-44" fill="#A7A2A2"></path>
            </g>
        </g>
    </g>
</svg>